HIERARCHY
ROOT hips
{
  OFFSET 0 10.6860622 2.3727825e-15
  CHANNELS 6 Xposition Yposition Zposition Yrotation Xrotation Zrotation
  JOINT leftUpperLeg
  {
    OFFSET 0.6642549969 -0.9402397400000004 0
    CHANNELS 3 Yrotation Xrotation Zrotation
    JOINT leftLowerLeg
    {
      OFFSET 0 -3.997221335632195 0
      CHANNELS 3 Yrotation Xrotation Zrotation
      JOINT leftFoot
      {
        OFFSET -0.13777839790000004 -4.6145792000000005 -0.22186036399999998
        CHANNELS 3 Yrotation Xrotation Zrotation
        JOINT leftToes
        {
          OFFSET -0.03777410834999995 -0.9130806927000008 0.85230013
          CHANNELS 3 Yrotation Xrotation Zrotation
          End Site
          {
            OFFSET -0.03777410834999995 -0.9130806927000008 0.85230013
          }
        }
      }
    }
  }
  JOINT rightUpperLeg
  {
    OFFSET -0.6642778626 -0.9402397400000004 0
    CHANNELS 3 Yrotation Xrotation Zrotation
    JOINT rightLowerLeg
    {
      OFFSET 0 -3.997221452859387 0
      CHANNELS 3 Yrotation Xrotation Zrotation
      JOINT rightFoot
      {
        OFFSET 0.1377926176 -4.6145792000000005 -0.22185782299999995
        CHANNELS 3 Yrotation Xrotation Zrotation
        JOINT rightToes
        {
          OFFSET 0.037780746850000047 -0.9130806927000008 0.85230167
          CHANNELS 3 Yrotation Xrotation Zrotation
          End Site
          {
            OFFSET 0.037780746850000047 -0.9130806927000008 0.85230167
          }
        }
      }
    }
  }
  JOINT spine
  {
    OFFSET 0 0.13988381660000015 0
    CHANNELS 3 Yrotation Xrotation Zrotation
    JOINT chest
    {
      OFFSET 0 0.6191039003973773 0
      CHANNELS 3 Yrotation Xrotation Zrotation
      JOINT upperChest
      {
        OFFSET 0 0.9855186130586943 0
        CHANNELS 3 Yrotation Xrotation Zrotation
        JOINT leftShoulder
        {
          OFFSET 0.1807663869 1.5087829790000005 0
          CHANNELS 3 Yrotation Xrotation Zrotation
          JOINT leftUpperArm
          {
            OFFSET 0.5985063006419806 0 0
            CHANNELS 3 Yrotation Xrotation Zrotation
            JOINT leftLowerArm
            {
              OFFSET 2.2993332369501065 0 0
              CHANNELS 3 Yrotation Xrotation Zrotation
              JOINT leftHand
              {
                OFFSET 2.395047042602395 0 0
                CHANNELS 3 Yrotation Xrotation Zrotation
                JOINT leftIndexProximal
                {
                  OFFSET 0.5766295810000004 0.04556643899499946 0.17265095988184
                  CHANNELS 3 Yrotation Xrotation Zrotation
                  JOINT leftIndexIntermediate
                  {
                    OFFSET 0.2957229000000008 -0.019352197700001517 -0.007932640616999987
                    CHANNELS 3 Yrotation Xrotation Zrotation
                    JOINT leftIndexDistal
                    {
                      OFFSET 0.19008243099999922 -0.012484908149998475 -0.002786250786000012
                      CHANNELS 3 Yrotation Xrotation Zrotation
                      End Site
                      {
                        OFFSET 0.19008243099999922 -0.012484908149998475 -0.002786250786000012
                      }
                    }
                  }
                }
                JOINT leftMiddleProximal
                {
                  OFFSET 0.5834975091000001 0.0524350405149987 0.02204081888183999
                  CHANNELS 3 Yrotation Xrotation Zrotation
                  JOINT leftMiddleIntermediate
                  {
                    OFFSET 0.33880573540000003 -0.019871473270000717 -0.00000971183179999946
                    CHANNELS 3 Yrotation Xrotation Zrotation
                    JOINT leftMiddleDistal
                    {
                      OFFSET 0.20676022730000088 -0.012221336379999448 0.0001471936708000235
                      CHANNELS 3 Yrotation Xrotation Zrotation
                      End Site
                      {
                        OFFSET 0.20676022730000088 -0.012221336379999448 0.0001471936708000235
                      }
                    }
                  }
                }
                JOINT leftLittleProximal
                {
                  OFFSET 0.5344154683999995 -0.012880921405001189 -0.24414037221816004
                  CHANNELS 3 Yrotation Xrotation Zrotation
                  JOINT leftLittleIntermediate
                  {
                    OFFSET 0.21758961730000093 -0.011650919939999227 0.011893592810000034
                    CHANNELS 3 Yrotation Xrotation Zrotation
                    JOINT leftLittleDistal
                    {
                      OFFSET 0.1475273964999999 -0.008152365682999818 0.006001092492999946
                      CHANNELS 3 Yrotation Xrotation Zrotation
                      End Site
                      {
                        OFFSET 0.1475273964999999 -0.008152365682999818 0.006001092492999946
                      }
                    }
                  }
                }
                JOINT leftRingProximal
                {
                  OFFSET 0.5799399463000003 0.026911854694997794 -0.12150566991816003
                  CHANNELS 3 Yrotation Xrotation Zrotation
                  JOINT leftRingIntermediate
                  {
                    OFFSET 0.26167887460000006 -0.013480186499999602 0.010996293000000053
                    CHANNELS 3 Yrotation Xrotation Zrotation
                    JOINT leftRingDistal
                    {
                      OFFSET 0.17667108799999987 -0.008990287899999228 0.0055541023999999065
                      CHANNELS 3 Yrotation Xrotation Zrotation
                      End Site
                      {
                        OFFSET 0.17667108799999987 -0.008990287899999228 0.0055541023999999065
                      }
                    }
                  }
                }
                JOINT leftThumbProximal
                {
                  OFFSET 0.11018806699999972 -0.09448718900500053 0.17047963138184
                  CHANNELS 3 Yrotation Xrotation Zrotation
                  JOINT leftThumbIntermediate
                  {
                    OFFSET 0.31062601459999983 -0.08126270900000132 0.15443142000000007
                    CHANNELS 3 Yrotation Xrotation Zrotation
                    JOINT leftThumbDistal
                    {
                      OFFSET 0.21627175790000086 -0.08833193599999878 0.018771167799999988
                      CHANNELS 3 Yrotation Xrotation Zrotation
                      End Site
                      {
                        OFFSET 0.21627175790000086 -0.08833193599999878 0.018771167799999988
                      }
                    }
                  }
                }
              }
            }
          }
        }
        JOINT neck
        {
          OFFSET 0 1.5463305265074576 0
          CHANNELS 3 Yrotation Xrotation Zrotation
          JOINT head
          {
            OFFSET 0 0.8456443600000344 0
            CHANNELS 3 Yrotation Xrotation Zrotation
            JOINT leftEye
            {
              OFFSET 0.30408573140000006 0.5104519199999995 0.1276382305
              CHANNELS 3 Yrotation Xrotation Zrotation
              End Site
              {
                OFFSET 0.30408573140000006 0.5104519199999995 0.1276382305
              }
            }
            JOINT rightEye
            {
              OFFSET -0.30409491089999996 0.5104519199999995 0.1276379445
              CHANNELS 3 Yrotation Xrotation Zrotation
              End Site
              {
                OFFSET -0.30409491089999996 0.5104519199999995 0.1276379445
              }
            }
            JOINT jaw
            {
              OFFSET -3.155239131000001e-7 -0.11984121820000082 0.60178107
              CHANNELS 3 Yrotation Xrotation Zrotation
              End Site
              {
                OFFSET -3.155239131000001e-7 -0.11984121820000082 0.60178107
              }
            }
          }
        }
        JOINT rightShoulder
        {
          OFFSET -0.1807303465 1.5087829790000005 0
          CHANNELS 3 Yrotation Xrotation Zrotation
          JOINT rightUpperArm
          {
            OFFSET -0.5985063796536958 0 0
            CHANNELS 3 Yrotation Xrotation Zrotation
            JOINT rightLowerArm
            {
              OFFSET -2.2993322059002854 0 0
              CHANNELS 3 Yrotation Xrotation Zrotation
              JOINT rightHand
              {
                OFFSET -2.395045314457259 0 0
                CHANNELS 3 Yrotation Xrotation Zrotation
                JOINT rightIndexProximal
                {
                  OFFSET -0.5764487688300002 0.0441371204405987 0.17361932004999997
                  CHANNELS 3 Yrotation Xrotation Zrotation
                  JOINT rightIndexIntermediate
                  {
                    OFFSET -0.29573011380000047 -0.01934826376999843 -0.007698921482999974
                    CHANNELS 3 Yrotation Xrotation Zrotation
                    JOINT rightIndexDistal
                    {
                      OFFSET -0.19008373999999884 -0.012503266380000655 -0.0026365778999999897
                      CHANNELS 3 Yrotation Xrotation Zrotation
                      End Site
                      {
                        OFFSET -0.19008373999999884 -0.012503266380000655 -0.0026365778999999897
                      }
                    }
                  }
                }
                JOINT rightMiddleProximal
                {
                  OFFSET -0.5834852037300005 0.05211639405060153 0.02307162440000001
                  CHANNELS 3 Yrotation Xrotation Zrotation
                  JOINT rightMiddleIntermediate
                  {
                    OFFSET -0.33880114510000003 -0.019952774050000954 0.0002455003561999819
                    CHANNELS 3 Yrotation Xrotation Zrotation
                    JOINT rightMiddleDistal
                    {
                      OFFSET -0.20675694929999955 -0.012273788999999091 0.00030209124000002766
                      CHANNELS 3 Yrotation Xrotation Zrotation
                      End Site
                      {
                        OFFSET -0.20675694929999955 -0.012273788999999091 0.00030209124000002766
                      }
                    }
                  }
                }
                JOINT rightLittleProximal
                {
                  OFFSET -0.5346811737299992 -0.011214256288399227 -0.24363941305000003
                  CHANNELS 3 Yrotation Xrotation Zrotation
                  JOINT rightLittleIntermediate
                  {
                    OFFSET -0.21757715980000092 -0.011771559690000988 0.01201554387
                    CHANNELS 3 Yrotation Xrotation Zrotation
                    JOINT rightLittleDistal
                    {
                      OFFSET -0.1475201849000004 -0.00822055339600003 0.006082065407000015
                      CHANNELS 3 Yrotation Xrotation Zrotation
                      End Site
                      {
                        OFFSET -0.1475201849000004 -0.00822055339600003 0.006082065407000015
                      }
                    }
                  }
                }
                JOINT rightRingProximal
                {
                  OFFSET -0.5800810755299999 0.027657985680600072 -0.12066365025000003
                  CHANNELS 3 Yrotation Xrotation Zrotation
                  JOINT rightRingIntermediate
                  {
                    OFFSET -0.26166445029999974 -0.013623118409999302 0.011164098990000045
                    CHANNELS 3 Yrotation Xrotation Zrotation
                    JOINT rightRingDistal
                    {
                      OFFSET -0.17666387530000027 -0.009072900100000503 0.005668185599999959
                      CHANNELS 3 Yrotation Xrotation Zrotation
                      End Site
                      {
                        OFFSET -0.17666387530000027 -0.009072900100000503 0.005668185599999959
                      }
                    }
                  }
                }
                JOINT rightThumbProximal
                {
                  OFFSET -0.10997596379000074 -0.09577489355940072 0.16989765924999997
                  CHANNELS 3 Yrotation Xrotation Zrotation
                  JOINT rightThumbIntermediate
                  {
                    OFFSET -0.31036620999999986 -0.08229339117999834 0.15440884469999996
                    CHANNELS 3 Yrotation Xrotation Zrotation
                    JOINT rightThumbDistal
                    {
                      OFFSET -0.21631306399999906 -0.08825326400000111 0.018656797720000014
                      CHANNELS 3 Yrotation Xrotation Zrotation
                      End Site
                      {
                        OFFSET -0.21631306399999906 -0.08825326400000111 0.018656797720000014
                      }
                    }
                  }
                }
              }
            }
          }
        }
      }
    }
  }
}
MOTION
Frames: 6
Frame Time: 0.03333333333333333
0 -20.27139985947667 3.488339440066659 0 -31.002780863131715 0 -139.10907922403533 -61.88254587076018 134.35512212845086 176.64328266869373 29.912609067122197 176.03392537269622 -21.162441238467853 -14.45666803582316 -14.787203410463475 0 0 0 135.52218811897868 -63.502571089735056 -133.15137707208916 -176.6315569764142 29.91021951818332 -176.0421824143012 22.230400649380723 -15.797549238252426 13.107929673906874 0 0 0 -1.0372224332404583 44.85495418861183 -1.614950780383925 -0.4407002358134458 41.96813056103273 -0.8705470973674089 0 0 0 -7.521503618621572 -9.79101093720909 -4.787600041967853 -50.40153431204254 -78.82154955826371 -22.636553223316128 -94.45535656285334 34.53778524584241 -73.90376068824874 -6.03796757412778 -30.761299938437737 -67.44984279220904 0 0 0 0 0 0 0 0 0 0 0 0 0 0 0 0 0 0 0 0 0 0 0 0 0 0 0 0 0 0 0 0 0 0 0 0 0 0 0 0 0 0 0 0 0 21.182100071575167 -8.126535688849952 -17.17547110552166 12.48657716011957 -43.476354235726696 2.5383884546044704 0 0 0 0 0 0 0 0 0 7.999697302179805 -9.83990076856976 4.6951693915027235 50.223065034780994 -78.761165050818 22.7031685924358 94.37921856870419 34.60260485333723 73.82812394704959 6.09127459679334 -30.725224485701208 67.41896818551017 0 0 0 0 0 0 0 0 0 0 0 0 0 0 0 0 0 0 0 0 0 0 0 0 0 0 0 0 0 0 0 0 0 0 0 0 0 0 0 0 0 0 0 0 0
0 -20.27139985947667 3.488339440066659 0 -31.002780863131715 0 -139.07165948246967 -61.900906545320055 134.40392186347427 176.64328266869373 29.912609067122197 176.03392537269622 -21.173638621907774 -14.456735044339318 -14.771245466244453 0 0 0 135.52218811897868 -63.502571089735056 -133.15137707208916 -176.6315569764142 29.91021951818332 -176.0421824143012 22.230400649380723 -15.797549238252426 13.107929673906874 0 0 0 -1.0372224332404583 44.85495418861183 -1.614950780383925 -0.4407002358134458 41.96813056103273 -0.8705470973674089 0 0 0 -7.374351703325347 -9.753962570743838 -4.904495657921168 -50.492836029413716 -78.82641256432996 -22.6646045689277 -94.45535656285334 34.53778524584241 -73.90376068824874 -6.03796757412778 -30.761299938437737 -67.44984279220904 0 0 0 0 0 0 0 0 0 0 0 0 0 0 0 0 0 0 0 0 0 0 0 0 0 0 0 0 0 0 0 0 0 0 0 0 0 0 0 0 0 0 0 0 0 21.45132823004562 -8.190058128272836 -17.318407146577282 12.559589529069402 -43.18341955266581 2.5677718762222397 0 0 0 0 0 0 0 0 0 7.84495096127254 -9.801832362387584 4.81490545957026 50.31833244047627 -78.767141745575 22.72774556937198 94.37921856870419 34.60260485333723 73.82812394704959 6.09127459679334 -30.725224485701208 67.41896818551017 0 0 0 0 0 0 0 0 0 0 0 0 0 0 0 0 0 0 0 0 0 0 0 0 0 0 0 0 0 0 0 0 0 0 0 0 0 0 0 0 0 0 0 0 0
0 -20.27139985947667 3.488339440066659 0 -31.002780863131715 0 -139.03425543399158 -61.91928550133688 134.45272560430325 176.64328266869373 29.912609067122197 176.03392537269622 -21.18483436736376 -14.456798526110102 -14.75528665996564 0 0 0 135.52218811897868 -63.502571089735056 -133.15137707208916 -176.6315569764142 29.91021951818332 -176.0421824143012 22.230400649380723 -15.797549238252426 13.107929673906874 0 0 0 -1.0372224332404583 44.85495418861183 -1.614950780383925 -0.4407002358134458 41.96813056103273 -0.8705470973674089 0 0 0 -7.227291736242035 -9.7166186167144 -5.021280829453245 -50.58416573664873 -78.83126002995111 -22.692628492290165 -94.45535656285334 34.53778524584241 -73.90376068824874 -6.03796757412778 -30.761299938437737 -67.44984279220904 0 0 0 0 0 0 0 0 0 0 0 0 0 0 0 0 0 0 0 0 0 0 0 0 0 0 0 0 0 0 0 0 0 0 0 0 0 0 0 0 0 0 0 0 0 21.720757001185063 -8.252914341882722 -17.46166648229066 12.632459077070159 -42.89051336363434 2.5975250380581576 0 0 0 0 0 0 0 0 0 7.69030318015191 -9.763445187501485 4.934522897885341 50.4136395232332 -78.77313912196834 22.752285820211632 94.37921856870419 34.60260485333723 73.82812394704959 6.09127459679334 -30.725224485701208 67.41896818551017 0 0 0 0 0 0 0 0 0 0 0 0 0 0 0 0 0 0 0 0 0 0 0 0 0 0 0 0 0 0 0 0 0 0 0 0 0 0 0 0 0 0 0 0 0
0 -20.27139985947667 3.488339440066659 0 -31.002780863131715 0 -138.9594665565473 -61.95609113353586 134.55033525153274 176.64328266869373 29.912609067122197 176.03392537269622 -21.20722349395366 -14.456919317862926 -14.723369202985346 0 0 0 135.52218811897868 -63.502571089735056 -133.15137707208916 -176.6315569764142 29.91021951818332 -176.0421824143012 22.230400649380723 -15.797549238252426 13.107929673906874 0 0 0 -1.0372224332404583 44.85495418861183 -1.614950780383925 -0.4407002358134458 41.96813056103273 -0.8705470973674089 0 0 0 -6.933426881864764 -9.641036485028218 -5.254544817695215 -50.76691997141535 -78.84097884420144 -22.74858412765238 -94.45535656285334 34.53778524584241 -73.90376068824874 -6.03796757412778 -30.761299938437737 -67.44984279220904 0 0 0 0 0 0 0 0 0 0 0 0 0 0 0 0 0 0 0 0 0 0 0 0 0 0 0 0 0 0 0 0 0 0 0 0 0 0 0 0 0 0 0 0 0 22.260812314253403 -8.37675657233792 -17.749455481827805 12.777974604067381 -42.30409886022698 2.658194066198651 0 0 0 0 0 0 0 0 0 7.3812743225559325 -9.685708841665507 5.173425267769649 50.60444533172916 -78.78509069497474 22.801101075404198 94.37921856870419 34.60260485333723 73.82812394704959 6.09127459679334 -30.725224485701208 67.41896818551017 0 0 0 0 0 0 0 0 0 0 0 0 0 0 0 0 0 0 0 0 0 0 0 0 0 0 0 0 0 0 0 0 0 0 0 0 0 0 0 0 0 0 0 0 0
0 -20.27139985947667 3.488339440066659 0 -31.002780863131715 0 -138.92208909178575 -61.97451060283288 134.59914914148226 176.64328266869373 29.912609067122197 176.03392537269622 -21.21841724411111 -14.456973101073263 -14.707408800946459 0 0 0 135.52218811897868 -63.502571089735056 -133.15137707208916 -176.6315569764142 29.91021951818332 -176.0421824143012 22.2304022920502 -15.797549238252426 13.107930538075042 0 0 0 -1.0372224332404583 44.85495418861183 -1.614950780383925 -0.4407002358134458 41.96813056103273 -0.8705470973674089 0 0 0 -6.7866238255810565 -9.60280020744877 -5.371017327634701 -50.85832849318101 -78.84586786715371 -22.776539547536252 -94.45535656285334 34.53778524584241 -73.90376068824874 -6.03796757412778 -30.761299938437737 -67.44984279220904 0 0 0 0 0 0 0 0 0 0 0 0 0 0 0 0 0 0 0 0 0 0 0 0 0 0 0 0 0 0 0 0 0 0 0 0 0 0 0 0 0 0 0 0 0 22.53141622752202 -8.437730922427216 -17.893970093725777 12.850623213883217 -42.01059013742808 2.6891066033465725 0 0 0 0 0 0 0 0 0 7.226896537042983 -9.646358992550882 5.29270535487357 50.699890970855485 -78.79109755181054 22.82549723736908 94.37921856870419 34.60260485333723 73.82812394704959 6.09127459679334 -30.725224485701208 67.41896818551017 0 0 0 0 0 0 0 0 0 0 0 0 0 0 0 0 0 0 0 0 0 0 0 0 0 0 0 0 0 0 0 0 0 0 0 0 0 0 0 0 0 0 0 0 0
0 -20.27139985947667 3.488339440066659 0 -31.002780863131715 0 -138.88471955498036 -61.99295574893974 134.64796493203423 176.64328266869373 29.912609067122197 176.03392537269622 -21.229610999108377 -14.457024239219754 -14.691449328924676 0 0 0 135.52218811897868 -63.502571089735056 -133.15137707208916 -176.6315569764142 29.91021951818332 -176.0421824143012 22.230403934719643 -15.797549238252426 13.107931402243205 0 0 0 -1.0372224332404583 44.85495418861183 -1.614950780383925 -0.4407002358134458 41.96813056103273 -0.8705470973674089 0 0 0 -6.639916825732885 -9.564269542462455 -5.487376969299482 -50.949761835199155 -78.85075900681392 -22.804463969939615 -94.45535656285334 34.53778524584241 -73.90376068824874 -6.03796757412778 -30.761299938437737 -67.44984279220904 0 0 0 0 0 0 0 0 0 0 0 0 0 0 0 0 0 0 0 0 0 0 0 0 0 0 0 0 0 0 0 0 0 0 0 0 0 0 0 0 0 0 0 0 0 22.802217139462854 -8.498028614277322 -18.03879832207759 12.923149485430876 -41.71711186840489 2.7203760856913117 0 0 0 0 0 0 0 0 0 7.072620061952032 -9.606693346946104 5.411863163289964 50.79537659115233 -78.79712516610779 22.849853188083365 94.37921856870419 34.60260485333723 73.82812394704959 6.09127459679334 -30.725224485701208 67.41896818551017 0 0 0 0 0 0 0 0 0 0 0 0 0 0 0 0 0 0 0 0 0 0 0 0 0 0 0 0 0 0 0 0 0 0 0 0 0 0 0 0 0 0 0 0 0
